<svg xmlns="http://www.w3.org/2000/svg" viewBox="0 0 1280 500" width="1280" height="500">
	<style>
		tspan { white-space:pre }
	</style>
	<path id="PRINTEDBASICS " fill="#000000" d="M52.56 207.81L33.95 207.81L33.95 248.9L52.56 248.9Q62.88 248.9 68.52 243.55Q74.16 238.2 74.16 228.32Q74.16 218.5 68.52 213.15Q62.88 207.81 52.56 207.81ZM19.16 305L19.16 195.65L52.56 195.65Q70.94 195.65 80.32 204Q89.76 212.28 89.76 228.32Q89.76 244.5 80.32 252.78Q70.94 261.05 52.56 261.05L33.95 261.05L33.95 305L19.16 305ZM161.47 253.73Q166.23 255.34 170.7 260.62Q175.24 265.89 179.78 275.12L194.79 305L178.9 305L164.91 276.95Q159.49 265.96 154.36 262.37Q149.31 258.78 140.52 258.78L124.41 258.78L124.41 305L109.61 305L109.61 195.65L143.01 195.65Q161.76 195.65 170.99 203.49Q180.22 211.32 180.22 227.14Q180.22 237.47 175.38 244.28Q170.62 251.09 161.47 253.73ZM143.01 207.81L124.41 207.81L124.41 246.63L143.01 246.63Q153.71 246.63 159.13 241.72Q164.62 236.74 164.62 227.14Q164.62 217.55 159.13 212.71Q153.71 207.81 143.01 207.81ZM213.84 305L213.84 195.65L228.63 195.65L228.63 305L213.84 305ZM258.08 305L258.08 195.65L278 195.65L326.48 287.13L326.48 195.65L340.84 195.65L340.84 305L320.92 305L272.43 213.52L272.43 305L258.08 305ZM355.12 208.1L355.12 195.65L447.63 195.65L447.63 208.1L408.81 208.1L408.81 305L393.94 305L393.94 208.1L355.12 208.1ZM461.91 305L461.91 195.65L531.05 195.65L531.05 208.1L476.7 208.1L476.7 240.47L528.78 240.47L528.78 252.92L476.7 252.92L476.7 292.55L532.37 292.55L532.37 305L461.91 305ZM589.35 207.81L571.48 207.81L571.48 292.84L589.35 292.84Q611.98 292.84 622.46 282.59Q633 272.33 633 250.21Q633 228.24 622.46 218.06Q611.98 207.81 589.35 207.81ZM556.68 305L556.68 195.65L587.08 195.65Q618.87 195.65 633.73 208.91Q648.6 222.09 648.6 250.21Q648.6 278.49 633.66 291.74Q618.72 305 587.08 305L556.68 305ZM699.43 237.98L715.03 237.98Q721.7 237.98 725.14 235.05Q728.58 232.12 728.58 226.41Q728.58 220.77 725.14 217.84Q721.7 214.84 715.03 214.84L699.43 214.84L699.43 237.98ZM699.43 285.81L715.99 285.81Q724.48 285.81 728.73 282.22Q733.05 278.63 733.05 271.38Q733.05 264.28 728.8 260.76Q724.55 257.17 715.99 257.17L699.43 257.17L699.43 285.81ZM742.21 246.48Q751.29 249.12 756.27 256.22Q761.25 263.33 761.25 273.65Q761.25 289.47 750.56 297.24Q739.86 305 718.04 305L671.23 305L671.23 195.65L713.57 195.65Q736.35 195.65 746.53 202.53Q756.78 209.42 756.78 224.58Q756.78 232.56 753.05 238.2Q749.31 243.77 742.21 246.48ZM858.81 305L851.92 285.08L807.83 285.08L800.87 305L772.53 305L813.03 195.65L846.65 195.65L887.15 305L858.81 305ZM829.88 221.28L814.86 264.79L844.82 264.79L829.88 221.28ZM977.75 199.09L977.75 222.24Q968.74 218.21 960.17 216.16Q951.61 214.11 943.99 214.11Q933.88 214.11 929.05 216.89Q924.21 219.67 924.21 225.53Q924.21 229.93 927.44 232.42Q930.73 234.83 939.3 236.59L951.31 239.01Q969.55 242.67 977.24 250.14Q984.93 257.61 984.93 271.38Q984.93 289.47 974.16 298.33Q963.47 307.12 941.42 307.12Q931.02 307.12 920.55 305.15Q910.08 303.17 899.6 299.29L899.6 275.48Q910.08 281.05 919.82 283.91Q929.63 286.69 938.71 286.69Q947.94 286.69 952.85 283.61Q957.76 280.54 957.76 274.82Q957.76 269.7 954.39 266.91Q951.09 264.13 941.13 261.93L930.22 259.52Q913.81 256 906.2 248.31Q898.65 240.62 898.65 227.58Q898.65 211.25 909.2 202.46Q919.75 193.67 939.52 193.67Q948.53 193.67 958.05 195.06Q967.57 196.38 977.75 199.09ZM1009.69 305L1009.69 195.65L1037.88 195.65L1037.88 305L1009.69 305ZM1152.22 276.36L1152.22 298.99Q1144.45 303.02 1136.03 305.07Q1127.61 307.12 1118.45 307.12Q1091.13 307.12 1075.17 291.89Q1059.2 276.58 1059.2 250.43Q1059.2 224.21 1075.17 208.98Q1091.13 193.67 1118.45 193.67Q1127.61 193.67 1136.03 195.72Q1144.45 197.77 1152.22 201.8L1152.22 224.43Q1144.38 219.09 1136.76 216.6Q1129.14 214.11 1120.72 214.11Q1105.63 214.11 1096.99 223.77Q1088.35 233.44 1088.35 250.43Q1088.35 267.35 1096.99 277.02Q1105.63 286.69 1120.72 286.69Q1129.14 286.69 1136.76 284.2Q1144.38 281.71 1152.22 276.36ZM1254.46 199.09L1254.46 222.24Q1245.45 218.21 1236.88 216.16Q1228.31 214.11 1220.7 214.11Q1210.59 214.11 1205.76 216.89Q1200.92 219.67 1200.92 225.53Q1200.92 229.93 1204.14 232.42Q1207.44 234.83 1216.01 236.59L1228.02 239.01Q1246.26 242.67 1253.95 250.14Q1261.64 257.61 1261.64 271.38Q1261.64 289.47 1250.87 298.33Q1240.18 307.12 1218.13 307.12Q1207.73 307.12 1197.26 305.15Q1186.79 303.17 1176.31 299.29L1176.31 275.48Q1186.79 281.05 1196.53 283.91Q1206.34 286.69 1215.42 286.69Q1224.65 286.69 1229.56 283.61Q1234.47 280.54 1234.47 274.82Q1234.47 269.7 1231.1 266.91Q1227.8 264.13 1217.84 261.93L1206.93 259.52Q1190.52 256 1182.9 248.31Q1175.36 240.62 1175.36 227.58Q1175.36 211.25 1185.91 202.46Q1196.45 193.67 1216.23 193.67Q1225.24 193.67 1234.76 195.06Q1244.28 196.38 1254.46 199.09Z" />
</svg>